<svg width="28" height="28" viewBox="0 0 28 28" fill="none" xmlns="http://www.w3.org/2000/svg">
<path d="M2.20456 14.0461C2.20456 13.6319 1.86877 13.2961 1.45456 13.2961C1.04035 13.2961 0.704559 13.6319 0.704559 14.0461H2.20456ZM25.7955 14.0461C25.7955 14.4603 26.1313 14.7961 26.5455 14.7961C26.9597 14.7961 27.2955 14.4603 27.2955 14.0461H25.7955ZM4.46599 6.60565L4.98159 7.15031L4.99772 7.13504L5.01293 7.11883L4.46599 6.60565ZM23.534 21.4865L24.081 21.9997L24.0909 21.9891L24.1003 21.9782L23.534 21.4865ZM3.78866 1.45826C3.79068 1.04405 3.45654 0.706624 3.04234 0.704599C2.62813 0.702573 2.2907 1.03671 2.28868 1.45092L3.78866 1.45826ZM3.02755 3.72759L2.27756 3.72393L3.02755 3.72759ZM7.64428 7.94002L7.64733 8.69001H7.64733L7.64428 7.94002ZM10.1385 8.67987C10.5527 8.67818 10.8871 8.34103 10.8854 7.92682C10.8838 7.51261 10.5466 7.1782 10.1324 7.17988L10.1385 8.67987ZM3.5401 7.06658L2.96813 7.55171L2.96813 7.55171L3.5401 7.06658ZM3.98483 7.47236L3.55222 8.08502L3.55222 8.08502L3.98483 7.47236ZM24.1104 26.5418C24.1084 26.956 24.4426 27.2935 24.8568 27.2955C25.271 27.2975 25.6084 26.9634 25.6104 26.5492L24.1104 26.5418ZM24.8716 24.2725L25.6215 24.2762L24.8716 24.2725ZM20.2548 20.0601L20.2518 19.3101H20.2518L20.2548 20.0601ZM17.7606 19.3202C17.3464 19.3219 17.012 19.6591 17.0137 20.0733C17.0153 20.4875 17.3525 20.8219 17.7667 20.8202L17.7606 19.3202ZM24.359 20.9335L24.931 20.4484H24.931L24.359 20.9335ZM23.9143 20.5277L24.3469 19.9151H24.3469L23.9143 20.5277ZM3.74977 7.28365L3.2447 7.83809L3.74977 7.28365ZM14 24.7429C7.41939 24.7429 2.20456 19.8905 2.20456 14.0461H0.704559C0.704559 20.8454 6.72331 26.2429 14 26.2429V24.7429ZM14 3.34927C20.5806 3.34927 25.7955 8.2016 25.7955 14.0461H27.2955C27.2955 7.24675 21.2767 1.84927 14 1.84927V3.34927ZM5.01293 7.11883C7.1698 4.8201 10.3884 3.34927 14 3.34927V1.84927C9.98074 1.84927 6.36405 3.48664 3.91905 6.09246L5.01293 7.11883ZM22.9871 20.9733C20.8302 23.272 17.6116 24.7429 14 24.7429V26.2429C18.0193 26.2429 21.636 24.6055 24.081 21.9997L22.9871 20.9733ZM2.28868 1.45092L2.27756 3.72393L3.77754 3.73126L3.78866 1.45826L2.28868 1.45092ZM7.64733 8.69001L10.1385 8.67987L10.1324 7.17988L7.64123 7.19002L7.64733 8.69001ZM2.27756 3.72393C2.27322 4.61097 2.26827 5.34566 2.33863 5.93348C2.41139 6.54143 2.57339 7.08632 2.96813 7.55171L4.11207 6.58145C3.98096 6.42687 3.88226 6.20861 3.828 5.75522C3.77132 5.28172 3.77302 4.6569 3.77754 3.73126L2.27756 3.72393ZM7.64123 7.19002C6.63179 7.19413 5.93257 7.19603 5.39872 7.14284C4.87579 7.09073 4.60562 6.99258 4.41744 6.8597L3.55222 8.08502C4.04351 8.43193 4.60973 8.57165 5.25 8.63545C5.87934 8.69816 6.67012 8.69399 7.64733 8.69001L7.64123 7.19002ZM25.6104 26.5492L25.6215 24.2762L24.1216 24.2688L24.1104 26.5418L25.6104 26.5492ZM20.2518 19.3101L17.7606 19.3202L17.7667 20.8202L20.2579 20.8101L20.2518 19.3101ZM25.6215 24.2762C25.6259 23.3891 25.6308 22.6544 25.5605 22.0666C25.4877 21.4587 25.3257 20.9138 24.931 20.4484L23.787 21.4186C23.9181 21.5732 24.0168 21.7915 24.0711 22.2449C24.1278 22.7184 24.1261 23.3432 24.1216 24.2688L25.6215 24.2762ZM20.2579 20.8101C21.2673 20.806 21.9665 20.8041 22.5004 20.8573C23.0233 20.9094 23.2935 21.0075 23.4817 21.1404L24.3469 19.9151C23.8556 19.5682 23.2894 19.4284 22.6491 19.3646C22.0198 19.3019 21.229 19.3061 20.2518 19.3101L20.2579 20.8101ZM2.96813 7.55171C3.05401 7.65296 3.14644 7.74857 3.2447 7.83809L4.25484 6.72921C4.2035 6.68244 4.15584 6.63306 4.11206 6.58145L2.96813 7.55171ZM3.2447 7.83809C3.34172 7.92647 3.44444 8.00892 3.55222 8.08502L4.41744 6.8597C4.3598 6.819 4.30553 6.77538 4.25484 6.72921L3.2447 7.83809ZM3.95039 6.06099L3.23417 6.73899L4.26537 7.82831L4.98159 7.15031L3.95039 6.06099ZM24.931 20.4484C24.8565 20.3606 24.7771 20.277 24.6933 20.198L23.6645 21.2897C23.7082 21.3308 23.7491 21.3739 23.787 21.4186L24.931 20.4484ZM24.6933 20.198C24.585 20.0959 24.4692 20.0014 24.3469 19.9151L23.4817 21.1404C23.5471 21.1866 23.6081 21.2365 23.6645 21.2897L24.6933 20.198ZM24.1003 21.9782L24.7452 21.2356L23.6126 20.2521L22.9678 20.9947L24.1003 21.9782Z" fill="#D047FF"/>
</svg>
